<?xml version="1.0" encoding="UTF-8"?>
<svg version="1.1" xmlns="http://www.w3.org/2000/svg" width="1024" height="1024">
<path d="M0 0 C337.92 0 675.84 0 1024 0 C1024 337.92 1024 675.84 1024 1024 C686.08 1024 348.16 1024 0 1024 C0 686.08 0 348.16 0 0 Z " fill="#EEEEE9" transform="translate(0,0)"/>
<path d="M0 0 C3.84628166 1.59810294 6.38182145 4.07962952 9.375 6.9375 C14.22182943 11.48308864 19.24750018 15.66801295 24.50317383 19.72998047 C29.08312624 23.26974453 33.58328958 26.89623093 38.0625 30.5625 C43.84305278 35.28489431 49.70464014 39.86871195 55.640625 44.39453125 C60.28211923 47.96501884 64.80206718 51.68633928 69.33544922 55.39233398 C72.73018928 58.16510242 76.13831745 60.90536274 79.625 63.5625 C110.04275757 87.17552021 129.0799592 118.52055245 134.58984375 156.92138672 C136.13301347 170.4488628 135.25027822 184.48497586 135 198 C111.57 198 88.14 198 64 198 C63.67 188.43 63.34 178.86 63 169 C58.86824354 146.27533945 48.4424156 132.31264329 30.2421875 119.125 C25.19688302 115.45483867 20.38939534 111.5104225 15.57958984 107.53955078 C13.72821611 106.01560447 11.86517556 104.50700779 10 103 C9.30519531 102.42217773 8.61039063 101.84435547 7.89453125 101.24902344 C6.84845703 100.41032715 6.84845703 100.41032715 5.78125 99.5546875 C5.15283203 99.04147949 4.52441406 98.52827148 3.87695312 97.99951172 C2.05192337 96.80690891 2.05192337 96.80690891 -0.03710938 97.18945312 C-3.49730911 98.61829182 -6.17237579 101.22470164 -9 103.625 C-16.21342306 109.62743516 -23.63001261 115.30259849 -31.171875 120.88525391 C-33.45612248 122.57961834 -35.73207847 124.28385653 -38 126 C-38.5789502 126.43723389 -39.15790039 126.87446777 -39.75439453 127.32495117 C-52.37140758 137.28795815 -58.79722269 153.58055881 -61 169 C-61.33 178.57 -61.66 188.14 -62 198 C-85.43 198 -108.86 198 -133 198 C-133 152.20894481 -133 152.20894481 -128.8125 138.0625 C-128.49212769 136.95310059 -128.49212769 136.95310059 -128.1652832 135.82128906 C-119.15160375 105.69687579 -101.6188568 81.83867413 -76.734375 62.87890625 C-72.56461871 59.69584362 -68.53488855 56.35130858 -64.5 53 C-59.36320738 48.74493429 -54.19725074 44.53972853 -48.9375 40.4375 C-38.31270274 32.14676481 -27.86452276 23.64248049 -17.60595703 14.90258789 C-13.17123981 11.12742493 -8.67078679 7.44208652 -4.14453125 3.77734375 C-1.96529769 2.02744291 -1.96529769 2.02744291 0 0 Z " fill="#E9BA86" transform="translate(511,323)"/>
<path d="M0 0 C2.31865312 1.22742333 3.95671743 2.45122141 5.85668945 4.24755859 C9.29271 7.36125076 12.85895254 10.24926615 16.54418945 13.06005859 C17.37551392 13.69415649 17.37551392 13.69415649 18.22363281 14.34106445 C19.36419337 15.20960369 20.5052297 16.07751848 21.64672852 16.94482422 C23.87080262 18.6392359 26.08350106 20.34814807 28.29638672 22.05712891 C34.18680717 26.60499076 40.12268947 31.08768165 46.09106445 35.53271484 C48.35668945 37.24755859 48.35668945 37.24755859 49.35668945 38.24755859 C49.44540218 41.27733663 49.47188296 44.28422881 49.4543457 47.31396484 C49.45293076 48.22258774 49.45151581 49.13121063 49.45005798 50.06736755 C49.44444139 52.9816308 49.4318861 55.8958184 49.41918945 58.81005859 C49.41417659 60.78076061 49.40961331 62.75146383 49.40551758 64.72216797 C49.39531562 69.56401774 49.37574354 74.40570307 49.35668945 79.24755859 C42.42668945 79.24755859 35.49668945 79.24755859 28.35668945 79.24755859 C28.4237207 77.11416016 28.49075195 74.98076172 28.55981445 72.78271484 C28.58388197 70.68732175 28.58720859 68.59283135 28.58862305 66.49731445 C28.60053704 65.05491664 28.63360065 63.61251731 28.68920898 62.17114258 C29.07210983 53.12595392 29.07210983 53.12595392 24.84692383 45.41113281 C21.77924399 43.10367494 18.67575472 41.17143497 15.35668945 39.24755859 C13.04668945 37.59755859 10.73668945 35.94755859 8.35668945 34.24755859 C8.35668945 54.70755859 8.35668945 75.16755859 8.35668945 96.24755859 C5.12531137 95.43971407 3.43381239 94.86621958 0.7199707 93.21630859 C0.06061523 92.81798828 -0.59874023 92.41966797 -1.27807617 92.00927734 C-1.95547852 91.59291016 -2.63288086 91.17654297 -3.33081055 90.74755859 C-4.01981445 90.33119141 -4.70881836 89.91482422 -5.41870117 89.48583984 C-10.48159767 86.40927147 -10.48159767 86.40927147 -11.64331055 85.24755859 C-11.73671488 83.62081082 -11.76076226 81.99001808 -11.75683594 80.3605957 C-11.75676041 79.31959213 -11.75668488 78.27858856 -11.75660706 77.20603943 C-11.75144577 76.07376419 -11.74628448 74.94148895 -11.7409668 73.77490234 C-11.73955185 72.62212296 -11.7381369 71.46934357 -11.73667908 70.28163147 C-11.7310606 66.58274796 -11.71850496 62.88392395 -11.70581055 59.18505859 C-11.70079793 56.68440842 -11.69623461 54.18375731 -11.69213867 51.68310547 C-11.68108517 45.53790271 -11.66432907 39.3927349 -11.64331055 33.24755859 C-12.30331055 33.24755859 -12.96331055 33.24755859 -13.64331055 33.24755859 C-13.64331055 33.90755859 -13.64331055 34.56755859 -13.64331055 35.24755859 C-15.50829165 36.78832448 -17.36909506 38.21509097 -19.33081055 39.62255859 C-23.94196214 42.98895807 -23.94196214 42.98895807 -28.4128418 46.53662109 C-30.64331055 48.24755859 -30.64331055 48.24755859 -32.64331055 48.24755859 C-35.52802242 71.18112688 -35.52802242 71.18112688 -29.48071289 92.45214844 C-23.78945727 97.45373983 -17.04191969 100.16887955 -10.02709961 102.85107422 C-4.71669858 105.04266829 -0.06403982 108.11590666 4.73168945 111.24755859 C6.3414973 112.25105026 7.95340519 113.2511827 9.56762695 114.24755859 C12.95949306 116.36370734 16.33259259 118.50747795 19.70043945 120.66162109 C26.60670168 125.06543877 33.6200033 129.28925691 40.63012695 133.52490234 C41.6149707 134.12173828 42.59981445 134.71857422 43.61450195 135.33349609 C44.50282715 135.87022949 45.39115234 136.40696289 46.30639648 136.95996094 C48.35668945 138.24755859 48.35668945 138.24755859 49.35668945 139.24755859 C49.52489014 141.45737212 49.62213163 143.67260343 49.69238281 145.88769531 C49.71501694 146.58218277 49.73765106 147.27667023 49.76097107 147.99220276 C49.95885019 154.43129737 50.07378581 160.87239609 50.16419125 167.31381035 C50.22585832 171.6392778 50.31405624 175.96043379 50.46777344 180.28369141 C50.61589217 184.46746588 50.69363012 188.6473311 50.72390938 192.83356094 C50.74708935 194.42152292 50.79445548 196.00933928 50.86747551 197.59579086 C51.39664003 209.65030268 51.39664003 209.65030268 47.98652458 213.99204636 C44.66163835 217.23286821 40.95590314 219.80277166 37.00944233 222.22802353 C34.88125801 223.54083839 32.87891282 225.00472465 30.8684082 226.48974609 C29.59594375 227.37064579 28.32123589 228.24831464 27.04418945 229.12255859 C20.09249379 233.94291819 13.35838291 239.00102445 6.71289062 244.23535156 C5.70319214 245.02256592 5.70319214 245.02256592 4.6730957 245.82568359 C4.07956299 246.29393555 3.48603027 246.7621875 2.87451172 247.24462891 C1.35668945 248.24755859 1.35668945 248.24755859 -0.64331055 248.24755859 C-0.64331055 248.90755859 -0.64331055 249.56755859 -0.64331055 250.24755859 C-5.53742911 248.70302688 -8.8901282 245.84686424 -12.76831055 242.62255859 C-18.0575401 238.30612007 -23.40746419 234.15374796 -28.9597168 230.17724609 C-33.91395806 226.61480769 -38.7867404 222.94171659 -43.64331055 219.24755859 C-44.75323112 218.57339905 -44.75323112 218.57339905 -45.88557434 217.88562012 C-52.16646154 213.76335694 -52.16646154 213.76335694 -53.43560791 209.72901917 C-53.68365947 206.72968387 -53.65706361 203.85176535 -53.5222168 200.84521484 C-53.50948227 199.76751328 -53.49674774 198.68981171 -53.48362732 197.57945251 C-53.43344168 194.1539838 -53.32057254 190.73391158 -53.20581055 187.31005859 C-53.16064495 184.98135934 -53.11958402 182.65257662 -53.08276367 180.32373047 C-52.99145259 174.62794802 -52.81540744 168.94375326 -52.64331055 163.24755859 C-45.71331055 163.24755859 -38.78331055 163.24755859 -31.64331055 163.24755859 C-31.75674805 165.92365234 -31.87018555 168.59974609 -31.98706055 171.35693359 C-33.60137048 190.4905055 -33.60137048 190.4905055 -27.11987305 207.43896484 C-23.87031935 210.11005613 -20.37130978 212.05664265 -16.43676758 213.5378418 C-14.64331055 214.24755859 -14.64331055 214.24755859 -11.64331055 216.24755859 C-11.64331055 192.81755859 -11.64331055 169.38755859 -11.64331055 145.24755859 C-8.53897494 146.48929283 -5.95040875 147.5357574 -3.12768555 149.15771484 C-2.21116211 149.68268555 -2.21116211 149.68268555 -1.27612305 150.21826172 C-0.65479492 150.57855469 -0.0334668 150.93884766 0.60668945 151.31005859 C1.24348633 151.67421875 1.8802832 152.03837891 2.53637695 152.41357422 C7.21594697 155.10681611 7.21594697 155.10681611 8.35668945 156.24755859 C8.48006119 158.08787849 8.53460253 159.93285271 8.56201172 161.77709961 C8.59192955 163.54882286 8.59192955 163.54882286 8.62245178 165.3563385 C8.63916428 166.64173019 8.65587677 167.92712189 8.6730957 169.25146484 C8.6938768 170.55961655 8.7146579 171.86776825 8.73606873 173.21556091 C8.79135245 176.69911306 8.84073376 180.18272519 8.88891602 183.66638184 C8.9390852 187.2188859 8.99479512 190.7713025 9.05004883 194.32373047 C9.15770736 201.29826405 9.25913512 208.27287657 9.35668945 215.24755859 C10.40469727 214.47669922 11.45270508 213.70583984 12.5324707 212.91162109 C13.9113516 211.89856574 15.29025924 210.88554681 16.66918945 209.87255859 C17.35948242 209.36466797 18.04977539 208.85677734 18.76098633 208.33349609 C19.76162109 207.59873047 19.76162109 207.59873047 20.7824707 206.84912109 C21.39517822 206.39875488 22.00788574 205.94838867 22.63916016 205.484375 C24.18672523 204.36995216 25.76991568 203.30540778 27.35668945 202.24755859 C27.95799224 200.05874965 27.95799224 200.05874965 28.078125 197.46923828 C28.15431564 196.47314545 28.23050629 195.47705261 28.30900574 194.45077515 C31.26403147 169.64039881 31.26403147 169.64039881 25.24584961 146.58056641 C19.85855846 141.47082912 13.42808453 139.22867526 6.38647461 137.20458984 C2.09693943 135.84963594 -1.27988891 133.65722977 -4.95581055 131.12255859 C-6.21580806 130.31961741 -7.47884728 129.52142953 -8.74487305 128.72802734 C-10.04439449 127.90127087 -11.34387187 127.07444515 -12.64331055 126.24755859 C-14.86967904 124.83699299 -17.09691256 123.42795309 -19.32798767 122.02484131 C-20.91222969 121.01853735 -22.48830148 119.99915165 -24.05256653 118.96206665 C-28.29954442 116.18191726 -32.42163752 113.83836993 -37.125 111.91577148 C-43.12839793 109.26001749 -48.51390551 106.48049149 -52.64331055 101.24755859 C-56.09482021 91.88455646 -55.20274239 81.48455711 -54.72644043 71.67510986 C-54.6154352 68.76737583 -54.62396394 65.86516588 -54.6348114 62.95572281 C-54.6357108 60.12988499 -54.57946649 57.30748181 -54.50466919 54.48271942 C-54.45704271 52.50192941 -54.44219668 50.52043675 -54.42822266 48.53912354 C-54.13523053 43.20594408 -53.84247085 39.63083028 -50.27001953 35.5098877 C-47.48900462 33.20599044 -44.67404449 31.20747167 -41.64331055 29.24755859 C-39.78380817 27.90072813 -37.92888537 26.54752725 -36.08081055 25.18505859 C-35.16299805 24.52634766 -34.24518555 23.86763672 -33.29956055 23.18896484 C-30.83910562 21.39066175 -28.45270807 19.53551019 -26.08081055 17.62255859 C-25.2815918 16.98318359 -24.48237305 16.34380859 -23.65893555 15.68505859 C-21.94285071 14.29796411 -20.23085095 12.90568644 -18.53198242 11.49755859 C-16.14479856 9.52250739 -13.73888665 7.57205681 -11.33081055 5.62255859 C-10.55342529 4.9694873 -9.77604004 4.31641602 -8.97509766 3.64355469 C-8.2301001 3.04623535 -7.48510254 2.44891602 -6.7175293 1.83349609 C-5.72112427 1.01437744 -5.72112427 1.01437744 -4.70458984 0.17871094 C-2.64331055 -0.75244141 -2.64331055 -0.75244141 0 0 Z " fill="#E8B884" transform="translate(513.643310546875,455.75244140625)"/>
<path d="M0 0 C23.43 0 46.86 0 71 0 C71 56.1 71 112.2 71 170 C47.57 170 24.14 170 0 170 C0 113.9 0 57.8 0 0 Z " fill="#E7B581" transform="translate(378,534)"/>
<path d="M0 0 C2.27211805 0.92381621 3.77910446 2.01232837 5.64794922 3.59912109 C6.33034668 4.17122314 7.01274414 4.7433252 7.71582031 5.33276367 C8.43850098 5.94917725 9.16118164 6.56559082 9.90576172 7.20068359 C11.43591167 8.4845479 12.96717747 9.76708336 14.49951172 11.04833984 C15.26263672 11.68787598 16.02576172 12.32741211 16.81201172 12.98632812 C19.96279013 15.59834007 23.1753753 18.12576155 26.40576172 20.63818359 C31.37165034 24.51030717 36.26882709 28.45397124 41.13232422 32.45458984 C44.51885268 35.22497095 47.92723265 37.96681488 51.34326172 40.70068359 C51.97635254 41.20760742 52.60944336 41.71453125 53.26171875 42.23681641 C56.40912861 44.75123209 59.56722032 47.25006227 62.74951172 49.72021484 C89.77773638 70.70212555 106.50948935 94.22011208 112.66357422 128.33349609 C113.10149518 132.49840399 113.1394884 136.58028292 113.09326172 140.76318359 C113.07263672 143.42380859 113.05201172 146.08443359 113.03076172 148.82568359 C103.13076172 148.82568359 93.23076172 148.82568359 83.03076172 148.82568359 C82.80388672 146.18568359 82.57701172 143.54568359 82.34326172 140.82568359 C79.82138995 116.63994216 68.86939009 96.30124769 50.03076172 80.82568359 C47.10316297 78.55267825 44.1434135 76.33302724 41.15966797 74.13427734 C37.96325233 71.7758733 34.80220698 69.37501728 31.65576172 66.95068359 C31.12063965 66.53842529 30.58551758 66.12616699 30.03417969 65.70141602 C25.9561931 62.55278303 21.89655785 59.3810129 17.84326172 56.20068359 C17.25899414 55.74419434 16.67472656 55.28770508 16.07275391 54.81738281 C13.36251127 52.69270527 10.69603763 50.54255729 8.06591797 48.31787109 C6.74914062 47.20798828 6.74914062 47.20798828 5.40576172 46.07568359 C4.65037109 45.42083984 3.89498047 44.76599609 3.11669922 44.09130859 C1.17133722 42.66680563 1.17133722 42.66680563 -0.83642578 42.81396484 C-4.06064047 44.34340002 -6.7167054 46.52691561 -9.46923828 48.76318359 C-10.09016357 49.25898926 -10.71108887 49.75479492 -11.35083008 50.265625 C-15.2064309 53.35739431 -19.0018284 56.5167761 -22.78173828 59.70068359 C-27.59162049 63.74535727 -32.52703865 67.58786161 -37.53173828 71.38818359 C-59.14762018 87.84640776 -75.88957088 104.58479179 -81.46142578 132.05615234 C-82.21073088 137.61830175 -82.53878733 143.22982119 -82.96923828 148.82568359 C-93.19923828 148.82568359 -103.42923828 148.82568359 -113.96923828 148.82568359 C-113.96923828 119.37254676 -105.6276881 93.8009067 -86.96923828 70.82568359 C-86.29119141 69.95556641 -85.61314453 69.08544922 -84.91455078 68.18896484 C-76.30236273 57.72636691 -63.66755368 49.71345454 -53.03173828 41.38818359 C-42.38431913 33.05278412 -31.9492497 24.45287764 -21.49267578 15.88037109 C-18.10457084 13.12163549 -14.68590956 10.40231422 -11.25830078 7.69287109 C-9.12567512 5.95328907 -7.11536204 4.12949787 -5.09423828 2.26318359 C-1.96923828 -0.17431641 -1.96923828 -0.17431641 0 0 Z " fill="#EEEEE7" transform="translate(511.96923828125,351.17431640625)"/>
<path d="M0 0 C3.18228613 1.45757996 5.7593337 3.59659124 8.453125 5.79296875 C9.06559082 6.28289307 9.67805664 6.77281738 10.30908203 7.27758789 C12.2582856 8.83868447 14.20000132 10.40872395 16.140625 11.98046875 C18.59662387 13.96254817 21.05514836 15.94145094 23.515625 17.91796875 C24.13115234 18.41304932 24.74667969 18.90812988 25.38085938 19.41821289 C30.00267657 23.11698102 34.70644017 26.69381095 39.453125 30.23046875 C51.50746389 39.21960684 51.50746389 39.21960684 57.140625 43.98046875 C57.7490625 44.49222656 58.3575 45.00398438 58.984375 45.53125 C73.71960067 59.02737715 82.33295564 80.77201309 83.3125 100.4296875 C83.32539396 102.94723353 83.24543319 105.46507226 83.140625 107.98046875 C76.540625 107.98046875 69.940625 107.98046875 63.140625 107.98046875 C62.74875 105.11359375 62.356875 102.24671875 61.953125 99.29296875 C59.25527539 81.49932062 52.07399519 66.17980773 37.51953125 55.12890625 C36.2509049 54.19961758 34.97863658 53.2752842 33.703125 52.35546875 C27.21886969 47.59149492 20.9261449 42.64267136 14.72094727 37.52099609 C12.86944572 35.99657292 11.00611281 34.48772883 9.140625 32.98046875 C8.44582031 32.40264648 7.75101563 31.82482422 7.03515625 31.22949219 C5.98908203 30.3907959 5.98908203 30.3907959 4.921875 29.53515625 C4.29345703 29.02194824 3.66503906 28.50874023 3.01757812 27.97998047 C1.19254837 26.78737766 1.19254837 26.78737766 -0.89648438 27.16992188 C-4.35668411 28.59876057 -7.03175079 31.20517039 -9.859375 33.60546875 C-17.07279806 39.60790391 -24.48938761 45.28306724 -32.03125 50.86572266 C-34.31549748 52.56008709 -36.59145347 54.26432528 -38.859375 55.98046875 C-39.4383252 56.41770264 -40.01727539 56.85493652 -40.61376953 57.30541992 C-53.23078258 67.2684269 -59.65659769 83.56102756 -61.859375 98.98046875 C-62.189375 108.55046875 -62.519375 118.12046875 -62.859375 127.98046875 C-84.309375 127.98046875 -105.759375 127.98046875 -127.859375 127.98046875 C-127.859375 127.65046875 -127.859375 127.32046875 -127.859375 126.98046875 C-119.609375 126.98046875 -111.359375 126.98046875 -102.859375 126.98046875 C-103.189375 125.99046875 -103.519375 125.00046875 -103.859375 123.98046875 C-103.421875 121.79296875 -103.421875 121.79296875 -102.859375 119.98046875 C-104.509375 119.65046875 -106.159375 119.32046875 -107.859375 118.98046875 C-106.539375 117.99046875 -105.219375 117.00046875 -103.859375 115.98046875 C-103.859375 116.64046875 -103.859375 117.30046875 -103.859375 117.98046875 C-100.889375 116.99046875 -100.889375 116.99046875 -97.859375 115.98046875 C-97.859375 116.64046875 -97.859375 117.30046875 -97.859375 117.98046875 C-95.879375 116.99046875 -93.899375 116.00046875 -91.859375 114.98046875 C-92.189375 113.99046875 -92.519375 113.00046875 -92.859375 111.98046875 C-90.879375 110.99046875 -90.879375 110.99046875 -88.859375 109.98046875 C-89.849375 109.98046875 -90.839375 109.98046875 -91.859375 109.98046875 C-91.859375 109.32046875 -91.859375 108.66046875 -91.859375 107.98046875 C-99.119375 107.98046875 -106.379375 107.98046875 -113.859375 107.98046875 C-113.859375 107.65046875 -113.859375 107.32046875 -113.859375 106.98046875 C-103.629375 106.98046875 -93.399375 106.98046875 -82.859375 106.98046875 C-82.859375 102.69046875 -82.859375 98.40046875 -82.859375 93.98046875 C-80.06110843 73.12233702 -68.8613615 52.73638545 -52.20751953 39.68603516 C-49.58230255 37.6863663 -46.93561165 35.71730444 -44.27832031 33.76049805 C-36.59103851 28.09427316 -29.22812326 22.05156319 -21.859375 15.98046875 C-19.02034108 13.64651281 -16.17949643 11.31498016 -13.328125 8.99609375 C-11.64931376 7.62541875 -9.98299384 6.2393316 -8.328125 4.83984375 C-7.5340625 4.185 -6.74 3.53015625 -5.921875 2.85546875 C-5.23222656 2.27539062 -4.54257812 1.6953125 -3.83203125 1.09765625 C-1.859375 -0.01953125 -1.859375 -0.01953125 0 0 Z " fill="#E8B782" transform="translate(511.859375,393.01953125)"/>
<path d="M0 0 C23.43 0 46.86 0 71 0 C71 6.6 71 13.2 71 20 C54.17 20 37.34 20 20 20 C20 69.17 20 118.34 20 169 C13.4 169 6.8 169 0 169 C0 113.23 0 57.46 0 0 Z " fill="#B75A36" transform="translate(575,535)"/>
<path d="M0 0 C10.23 0 20.46 0 31 0 C31 42.24 31 84.48 31 128 C20.77 128 10.54 128 0 128 C0 85.76 0 43.52 0 0 Z " fill="#EEEDE6" transform="translate(398,555)"/>
<path d="M0 0 C6.93 0 13.86 0 21 0 C21 49.17 21 98.34 21 149 C14.07 149 7.14 149 0 149 C0 99.83 0 50.66 0 0 Z " fill="#E7B987" transform="translate(625,555)"/>
<path d="M0 0 C0.66 0.66 1.32 1.32 2 2 C5.09926819 1.67801034 5.09926819 1.67801034 8 1 C7.01 1.33 6.02 1.66 5 2 C4.26676204 4.01508358 4.26676204 4.01508358 4 6 C4.66 6 5.32 6 6 6 C5.44107104 9.52729494 4.45908579 10.71296297 1.625 12.8125 C-18.67750536 29.96086614 -29.71701675 59.38363635 -32.21826172 85.2578125 C-32.58419457 89.839253 -32.7948561 94.40477668 -33 99 C-25.74 99 -18.48 99 -11 99 C-11 99.66 -11 100.32 -11 101 C-10.01 101 -9.02 101 -8 101 C-9 103 -9 103 -11 104 C-11 104.99 -11 105.98 -11 107 C-15.92263743 108.79004998 -19.76683846 109 -25 109 C-23.8509288 110.2981424 -23.8509288 110.2981424 -21 111 C-21.33 113.31 -21.66 115.62 -22 118 C-37.345 118.495 -37.345 118.495 -53 119 C-53.04650493 114.30816918 -53.08614296 109.61717275 -53.10986328 104.92529297 C-53.11977582 103.33704891 -53.13330983 101.74882235 -53.15087891 100.16064453 C-53.30036682 86.27585555 -52.78416454 72.4797975 -48.8125 59.0625 C-48.59891846 58.32290039 -48.38533691 57.58330078 -48.1652832 56.82128906 C-42.46500845 37.77053034 -33.57623275 15.74546626 -16.6640625 4.15625 C-14.85167888 2.96981609 -14.85167888 2.96981609 -13 1 C-10.73725212 1.35355436 -9.04911148 1.97544426 -7 3 C-6.505 4.485 -6.505 4.485 -6 6 C-5.01 6 -4.02 6 -3 6 C-3.66 4.68 -4.32 3.36 -5 2 C-3.35 1.34 -1.7 0.68 0 0 Z M-13 3 C-12 5 -12 5 -12 5 Z " fill="#E7B47E" transform="translate(431,402)"/>
<path d="M0 0 C3.01157423 1.66319681 5.63634719 3.74017877 8.29296875 5.90625 C8.90543457 6.39617432 9.51790039 6.88609863 10.14892578 7.39086914 C12.09812935 8.95196572 14.03984507 10.5220052 15.98046875 12.09375 C18.43646762 14.07582942 20.89499211 16.05473219 23.35546875 18.03125 C23.97099609 18.52633057 24.58652344 19.02141113 25.22070312 19.53149414 C29.84252032 23.23026227 34.54628392 26.8070922 39.29296875 30.34375 C51.34730764 39.33288809 51.34730764 39.33288809 56.98046875 44.09375 C57.58890625 44.60550781 58.19734375 45.11726563 58.82421875 45.64453125 C73.55944442 59.1406584 82.17279939 80.88529434 83.15234375 100.54296875 C83.16523771 103.06051478 83.08527694 105.57835351 82.98046875 108.09375 C76.38046875 108.09375 69.78046875 108.09375 62.98046875 108.09375 C62.58859375 105.226875 62.19671875 102.36 61.79296875 99.40625 C59.09511914 81.61260187 51.91383894 66.29308898 37.359375 55.2421875 C36.0907376 54.31291392 34.81846281 53.38858975 33.54296875 52.46875 C27.89601657 48.31921558 22.38936224 44.0489965 16.98046875 39.59375 C6.02329026 30.59508797 -5.30815641 22.08901552 -17.01953125 14.09375 C-15.46297161 9.77783463 -12.16323996 7.47453475 -8.64453125 4.78125 C-8.06703125 4.31396484 -7.48953125 3.84667969 -6.89453125 3.36523438 C-2.70243404 0.12545148 -2.70243404 0.12545148 0 0 Z " fill="#BD5F38" transform="translate(512.01953125,392.90625)"/>
<path d="M0 0 C2.97 0.495 2.97 0.495 6 1 C6 14.53 6 28.06 6 42 C-0.27 42 -6.54 42 -13 42 C-13 32.43 -13 22.86 -13 13 C-8 12 -8 12 -6 12 C-5.67 11.01 -5.34 10.02 -5 9 C-4.01 9 -3.02 9 -2 9 C-2 8.01 -2 7.02 -2 6 C-1.34 5.67 -0.68 5.34 0 5 C0 3.35 0 1.7 0 0 Z " fill="#E8B985" transform="translate(556,492)"/>
<path d="M0 0 C23.43 0 46.86 0 71 0 C71 0.33 71 0.66 71 1 C56.81 1 42.62 1 28 1 C28 1.66 28 2.32 28 3 C27.34 3 26.68 3 26 3 C25.67 3.66 25.34 4.32 25 5 C22.9375 5.625 22.9375 5.625 21 6 C21.99 7.485 21.99 7.485 23 9 C20.36 9.33 17.72 9.66 15 10 C15 10.66 15 11.32 15 12 C13.68 12.33 12.36 12.66 11 13 C11 12.01 11 11.02 11 10 C10.34 9.67 9.68 9.34 9 9 C8.95745644 7.00045254 8.95919217 4.99958364 9 3 C9.33 2.67 9.66 2.34 10 2 C6.7 1.67 3.4 1.34 0 1 C0 0.67 0 0.34 0 0 Z " fill="#EAC194" transform="translate(378,534)"/>
<path d="M0 0 C1.8136477 0.97703921 3.62588817 1.95669105 5.4375 2.9375 C6.44683594 3.48277344 7.45617187 4.02804687 8.49609375 4.58984375 C11 6 11 6 12 7 C12.09439978 9.26991887 12.11742226 11.54281967 12.11352539 13.81469727 C12.11367142 14.52685394 12.11381744 15.23901062 12.1139679 15.9727478 C12.1132687 18.33733112 12.10547606 20.70183661 12.09765625 23.06640625 C12.09579209 24.70165463 12.09436818 26.33690357 12.09336853 27.97215271 C12.08954318 32.28434785 12.07971275 36.59650952 12.06866455 40.90869141 C12.0584508 45.30565946 12.05387099 49.70263289 12.04882812 54.09960938 C12.03809049 62.73308831 12.02101387 71.36654 12 80 C11.67 80 11.34 80 11 80 C11 57.23 11 34.46 11 11 C10.34 11 9.68 11 9 11 C9.33 11.99 9.66 12.98 10 14 C9.01 13.67 8.02 13.34 7 13 C7 12.34 7 11.68 7 11 C5.02 10.34 3.04 9.68 1 9 C0.29925156 5.846632 0 3.27275026 0 0 Z " fill="#E8C094" transform="translate(551,588)"/>
<path d="M0 0 C1.32 1.32 2.64 2.64 4 4 C4.33 3.01 4.66 2.02 5 1 C5.66 1.33 6.32 1.66 7 2 C7.33 1.67 7.66 1.34 8 1 C8.66 1.33 9.32 1.66 10 2 C9.67 2.66 9.34 3.32 9 4 C9.66 4.33 10.32 4.66 11 5 C10.67 5.33 10.34 5.66 10 6 C7.36 6 4.72 6 2 6 C2 11.28 2 16.56 2 22 C1.67 22 1.34 22 1 22 C0.67 14.74 0.34 7.48 0 0 Z " fill="#EAC395" transform="translate(624,478)"/>
<path d="M0 0 C0.33 0.66 0.66 1.32 1 2 C2.65 1.67 4.3 1.34 6 1 C5.34 2.65 4.68 4.3 4 6 C4.66 6.33 5.32 6.66 6 7 C4.02 7 2.04 7 0 7 C0 4.69 0 2.38 0 0 Z " fill="#E8BA89" transform="translate(379,476)"/>
<path d="M0 0 C2.97 0.33 5.94 0.66 9 1 C9.33 1.99 9.66 2.98 10 4 C9.34 4 8.68 4 8 4 C8 4.66 8 5.32 8 6 C4.63408134 4.55746343 2.48952921 2.66735273 0 0 Z " fill="#ECC394" transform="translate(520,357)"/>
<path d="M0 0 C3.465 1.98 3.465 1.98 7 4 C3.71023192 5.09658936 2.28696233 4.79953138 -1 4 C-0.67 2.68 -0.34 1.36 0 0 Z " fill="#EABC8A" transform="translate(543,583)"/>
<path d="M0 0 C0.66 0.33 1.32 0.66 2 1 C-1.12621626 4.39417765 -3.56541027 6.6062718 -8 8 C-5.33333333 5.33333333 -2.66666667 2.66666667 0 0 Z " fill="#EDC191" transform="translate(494,468)"/>
<path d="M0 0 C0.99 0.66 1.98 1.32 3 2 C2.01 2.33 1.02 2.66 0 3 C0 3.66 0 4.32 0 5 C-2.475 4.01 -2.475 4.01 -5 3 C-4.360625 2.690625 -3.72125 2.38125 -3.0625 2.0625 C-1.06389179 1.1654837 -1.06389179 1.1654837 0 0 Z " fill="#E7BE93" transform="translate(513,701)"/>
<path d="M0 0 C-4.75 4 -4.75 4 -7 4 C-7 3.34 -7 2.68 -7 2 C-7.66 1.67 -8.32 1.34 -9 1 C-3.375 -1.125 -3.375 -1.125 0 0 Z " fill="#ECC190" transform="translate(489,437)"/>
<path d="M0 0 C0.33 0.66 0.66 1.32 1 2 C0.67 2.66 0.34 3.32 0 4 C-0.99 4 -1.98 4 -3 4 C-3.66 5.32 -4.32 6.64 -5 8 C-5 6.68 -5 5.36 -5 4 C-2.5 1.75 -2.5 1.75 0 0 Z " fill="#C67048" transform="translate(501,400)"/>
</svg>
